<svg xmlns="http://www.w3.org/2000/svg"><symbol id="brachiosaurus" viewBox="0 0 256 256"><path d="M59.8 167.4a31 31 0 0 0-7.6.9h-.1c0 .3.3.6.8 1l2 1 2.7 1 2.8.8 2.4.6 1.4.2h2.2a10.9 10.9 0 0 0 2.5-.4l2.4-.8a5 5 0 0 0 1.7-1.5 30.3 30.3 0 0 0-6.4-2.2 30.8 30.8 0 0 0-6.8-.6z"/><path d="M128.8 2.3a126 126 0 1 0 126 126 126 126 0 0 0-126-126zM211 71.9v.3a9.5 9.5 0 0 1-.1 1.4l-.3 2c-.2.8-.2 1.5-.4 2.1s-.2 1.1-.2 1.3a7.6 7.6 0 0 0-.9 1.8l-.6 2-.6 2-.7 1.9c-.6 1.1-1.1 2.1-1.7 3a30.1 30.1 0 0 0-1.6 3.1l-19.8 27.4a.8.8 0 0 1-.2.6l-.2.3-.4.2-.4.5-1.6 2.3-2.1 2.8-2.1 3.2c-.7 1.1-1.4 2.2-2 3.3a25.3 25.3 0 0 0-1.4 2.9 8 8 0 0 0-.5 2.3c0 .3-.2.5-.2.7s.2.5.2.7a.3.3 0 0 0-.3.3c0 .3.1.4.3.4v10.1a4.4 4.4 0 0 1-.2 1c-.2.4-.2.7-.4 1.1l-.6 1.2c-.1.5-.4.8-.4 1.2v1.7c0 .1.1.2-.1.4a3 3 0 0 1-.4.8c-.1.3-.5.6-.7.8s-.5.4-.5.4v.4c0 .1.7.2.8.4s.9.4.9.4v.6a2.1 2.1 0 0 0 0 .8v1.5a20.5 20.5 0 0 1-.7 3.4c-.1 1.2-.5 2.4-.7 3.5s-.5 2.3-.7 3.5a19.8 19.8 0 0 0-.3 3.5c0 2.1.1 4.1.3 6.2a41 41 0 0 0 1.1 6.1 27.8 27.8 0 0 0 2.1 5.7 22.2 22.2 0 0 0 3.4 5.2 4.1 4.1 0 0 1-1.3.8l-1.6.7-1.8.4a3.4 3.4 0 0 1-1.4.1h-.4l-1.1-.2-1.2-.3-.9-.2h-.8l-.7-.3-.6-.5a.9.9 0 0 1-.3-.7c.1-1.3.1-2.6.1-4l-.3-4.3c-.1-1.4-.3-2.8-.5-4.2s-.4-2.7-.5-4a1 1 0 0 1-.2-.7 1.6 1.6 0 0 0-.3-.6c.1-1.1.1-2.3.2-3.6s-.1-2.6-.2-4a26.3 26.3 0 0 0-.6-3.9 9.4 9.4 0 0 0-1.4-3.4 3.7 3.7 0 0 0-1.4 1.8 17.3 17.3 0 0 0-.8 2.7c-.2.9-.2 1.9-.4 2.9a11.8 11.8 0 0 0-.9 2.3v3.7a17.6 17.6 0 0 0 0 2.3v1.5c0 2.8-.2 5.5-.1 8.2s.2 5.4.5 8.1l.4.3.8.6.8.7c.3.3.4.5.4.7s-.3.4-.8.7l-1.9.9-2 .8-1.2.4h-.2l-4.7-2.5a.5.5 0 0 1-.3-.5v-.6a14.5 14.5 0 0 1 .1-3 28.1 28.1 0 0 0 .1-3 23.1 23.1 0 0 0-.3-3.7l-.6-3.7-.6-3.7a25.5 25.5 0 0 1-.2-3.9c0-1.2 0-2.3.1-3.3l.3-2.8a25.6 25.6 0 0 0 .5-2.7c.2-1 .5-2 .7-3.2a2 2 0 0 0-.1-.7 5.6 5.6 0 0 0-.1-.7l-1.8.2-1.9.5-1.9.6-1.9.5-1.3.2-1.1.2-.9-.2h-2.9a44.7 44.7 0 0 1-5.2-.1h-7.6a4.1 4.1 0 0 0-2.4.8 45.1 45.1 0 0 1 0 5.2c0 1.7-.1 3.4-.1 5l-.3 5.1c0 1.7-.1 3.4-.1 5.1v5.1c0 .5.6 1.1 1.1 1.6a11.5 11.5 0 0 0 1.4 1.7l1.2 1.8a4.1 4.1 0 0 1 .5 1.8v.2h-.1a7.6 7.6 0 0 1-4 .4c.1.5 0 .8-.2.8h-2.7a7.8 7.8 0 0 1-2.2-.2 4.9 4.9 0 0 1-1.8-.8 2.4 2.4 0 0 1-.8-1.9c0-.4.1-.8.1-1.3a9.3 9.3 0 0 1 .4-1.3l.3-1.3a5.7 5.7 0 0 0 .1-1.3 23.4 23.4 0 0 0-.3-3.8c-.1-1.2-.4-2.4-.6-3.6s-.6-2.6-.8-3.8a29.5 29.5 0 0 1-.8-3.9h-.4c-.2 0-.4.7-.5.9l-.4.7-.3.5-1.5 2.3a17 17 0 0 0-1.5 2.2 25.6 25.6 0 0 0-1.1 2.4 11 11 0 0 0-.4 2.7 4.5 4.5 0 0 0 .3 1.6l.8 1.5.7 1.1a1.5 1.5 0 0 1 .3.6.8.8 0 0 1-.4.7l-1 .5-1.3.3h-2.6l-1.7-.2a2.1 2.1 0 0 1-1.1-.4 2.9 2.9 0 0 1-.7-.8l-.5-1.6c-.2-.6-.3-1.1-.5-1.6a4.7 4.7 0 0 1-.3-1.7 4.3 4.3 0 0 1 .4-1.4 8.6 8.6 0 0 1 1-1.6c.3-.6.7-1.1 1-1.6a7 7 0 0 0 .8-1.4c.9-2 1.7-3.9 2.5-5.9l2.4-5.8a3.5 3.5 0 0 1 .5-.8l.5-.7a1.6 1.6 0 0 0 .4-.7 2.4 2.4 0 0 0 .2-.8c0-.4-.1-.6-.3-.7h-1.3l-8.9 2.5a3.2 3.2 0 0 1-1.3.5l-1.8.4a3.4 3.4 0 0 0-1.5.6 1 1 0 0 0-.7 1 2 2 0 0 0 .2.9l.7.7.8.5.7.6-.3.4-1.3-.8-1.4-.8a4.7 4.7 0 0 0-1.5-.6 4 4 0 0 0-1.5-.3 17.3 17.3 0 0 0-3.8.5l-3.9 1.2-4 1.1a20.1 20.1 0 0 1-4.2.5 18.5 18.5 0 0 1-3.5-.4 39.7 39.7 0 0 1-4.8-1.1l-5.4-1.7a44.8 44.8 0 0 1-4.9-2.3 18.5 18.5 0 0 1-3.7-2.6 4.6 4.6 0 0 1-1.4-3 4.4 4.4 0 0 1 1.1-3.2 6.3 6.3 0 0 1 2.7-1.6c1.1-.4 2.3-.1 3.5-.2s2.3.3 3.3.3h4a2.2 2.2 0 0 1 1.2-.2h2.3l2.6.4 1.9.2a6 6 0 0 1 1.9.6l1.8.8 1.8.7a4.8 4.8 0 0 0 2 .4 8.9 8.9 0 0 0 4-1.1 37.7 37.7 0 0 0 4.1-2.5c1.3-1 2.6-2 3.8-3.1a33 33 0 0 1 3.3-2.7 9.4 9.4 0 0 1 1.8-1.2l1.8-1.1A10.9 10.9 0 0 0 97 155a5 5 0 0 0 1.5-1.7 31.8 31.8 0 0 0 2.6-4.4 39.9 39.9 0 0 1 2.7-4.4 5.3 5.3 0 0 1 1.3-1.3l1.5-1 1.6-.9a5.1 5.1 0 0 0 1.6-.9 33.2 33.2 0 0 0 3.6-2.6c1.2-.9 2.3-1.9 3.4-2.9l3.4-3 3.4-2.8a20 20 0 0 1 3.7-2.2l3.9-1.8 2.5-1.3 2.4-1.3 2.6-1.1a11.2 11.2 0 0 1 2.6-.8l22.2-3.2a11 11 0 0 0 3.5-1.1 14.6 14.6 0 0 0 3.3-2.2 27.9 27.9 0 0 0 3.2-2.8l2.9-3.3c.9-1.1 1.8-2.1 2.6-3.2l2.3-2.7 7.7-8.9q0-.2.3-.3l.5-.5.5-.6.3-.2 2-3.3h.3l.4-.3.3-.2.3-.2.4-.4.3-.4 1.3-1.7 1.3-1.9 1.3-2 1-1.7a11.9 11.9 0 0 0 .8-2 17.2 17.2 0 0 0 .7-2.1c.2-.7.5-1.4.8-2.2s1-1.4 1-2.1v-6.2a5.3 5.3 0 0 0-1.1-3.1 12.4 12.4 0 0 0-2.6-2.5 11.9 11.9 0 0 0-3.3-1.8 8.4 8.4 0 0 0-3.2-.7 22.5 22.5 0 0 0-5.8.7 12.4 12.4 0 0 0-5.1 2.6l-1.4 1.4-1.6 1.8c-.6.7-1.1 1.4-1.7 2a17 17 0 0 1-1.9 1.9l-1.8 1.3a4.1 4.1 0 0 1-1.7.5 1.7 1.7 0 0 1-1.2-.5 1.6 1.6 0 0 1-.5-1.1v-.5a1 1 0 0 0 .1-.4c.1-.3.1-.5.2-.8s.1-.5.1-.8a.8.8 0 0 0 .1-.4 8.8 8.8 0 0 0-.2-1.7l-.6-1.3a6.7 6.7 0 0 1-.6-1.2 2.7 2.7 0 0 1-.3-1.2 1.2 1.2 0 0 0 .9-.3l.4-.6c.1-.3.3-.5.4-.8l.8-.6h2.8a1.1 1.1 0 0 0 1-.4l.7-.6a.1.1 0 0 1 .2 0h.2c0 .1.1.2.2.4l.2.4c0-.2.2-.3.4-.4l.6-.3 1.1-.7 1.4-.8 1.3-.8 1.1-.6.5-.4a13.5 13.5 0 0 1 2.1-1.3 6.4 6.4 0 0 1 1.8-.6l1.9-.2h6.4a3.5 3.5 0 0 0 1.4.6l1.5.3 1.6.3 1.5.5a11.9 11.9 0 0 1 4.5 3 14.6 14.6 0 0 1 3.2 4.2 20.3 20.3 0 0 1 1.7 4.9 25 25 0 0 1 .5 5.5v2.3z"/></symbol><symbol id="micropachycephalosaurus" viewBox="0 0 256 256"><path d="M132.8 151.1c-.2 0-.4.2-.4.6h-.1c-.3 0-.4.2-.4.5s.1.6.4.6.4-.2.4-.6h.1c.4 0 .5-.2.5-.5s-.1-.6-.5-.6zm1.5-.8a2.4 2.4 0 0 0-.9.8h.3a2 2 0 0 0 1.1-.3 2.4 2.4 0 0 0 .9-.8h-.3a2 2 0 0 0-1.1.3zm3-2.5c-.3 0-.4.1-.4.5h-.1c-.3 0-.5.2-.5.6h-.1c-.3 0-.5.2-.5.6a.5.5 0 0 0 1 0h.1c.3 0 .4-.2.4-.6h.1c.3 0 .5-.2.5-.6s-.2-.5-.5-.5zm23-5.9a8.7 8.7 0 0 1-1.2 1.4 1.4 1.4 0 0 0 .8 1 2 2 0 0 0 1.1.2 2.3 2.3 0 0 0 1.4-.4 6.4 6.4 0 0 0 1-1.3 10 10 0 0 0 .8-1.4c.2-.5.4-1.2.5-1.2h-3.4c-.2 0-.5 1.1-1 1.7z"/><path d="M128.3 2.2a126 126 0 1 0 126 126 126 126 0 0 0-126-126zm94.5 74.7l-1.5.4h-3.7a30.8 30.8 0 0 0-5.2 1.2 15 15 0 0 0-3.6 1.6 8.3 8.3 0 0 0-2.4 2.1 11.9 11.9 0 0 0-1.8 2.9 40.4 40.4 0 0 0-1.5 3.9c-.4 1.5-1 3.1-1.6 5l-1.2 3.4-1.2 3.2c-.5 1-.9 2-1.5 3.1l-1.7 3.2a28 28 0 0 1-2.7 4c-.9 1.2-1.9 2.5-2.9 3.6l-3.1 3.6c-1 1.2-2 2.4-3 3.8a7.3 7.3 0 0 0-1.4 2.6 27.7 27.7 0 0 1-1 2.6 6.7 6.7 0 0 1-1.3 2.1 5.2 5.2 0 0 1-2.5 1.8 5.4 5.4 0 0 1-1.3.6l-2 .6-2 .7-1.4.4a3 3 0 0 1 .2 2 2 2 0 0 1-.9.9l-1.2.6a1.4 1.4 0 0 0-.8.9l-2.3 6.7a2.5 2.5 0 0 1-1 1.5 4.9 4.9 0 0 1-1.8.8 12.3 12.3 0 0 1-2 .2 10.3 10.3 0 0 1-1.8-.1h-.8c-.5 0-.9.2-1.2 0a.8.8 0 0 1-.4-.8c0-.2.1-.2.1-.4l.3-.2.2-.3a.6.6 0 0 0 .1-.4v-.2a21.1 21.1 0 0 0-3.4 1.6l-3.4 2.1-3.3 2.1a29 29 0 0 1-3.3 2l-.9.4-1.1.6a3.9 3.9 0 0 0-1 .8 1.3 1.3 0 0 0-.4 1v.6l1.8 1.6 1.9 1.7 2 1.6a11.3 11.3 0 0 0 2.1 1.2l1.8.7 1.9.5 1.9.7a5.6 5.6 0 0 1 1.7.9 5.8 5.8 0 0 1 1.3 1.4l1.1 1.5a17.1 17.1 0 0 1 1.1 1.4 6.4 6.4 0 0 0 1.5 1.3l1.7.6 2 .6a5.2 5.2 0 0 1 1.8 1 2.1 2.1 0 0 1 .7 1.7v.5l-5.5 1.1-1.1.4a2.1 2.1 0 0 1-1.2.3h-.5l-1.2-.6-1.7-1-1.7-1-1-.7-.2-.3-.3-.4-.3-.6-.3-.4-2.2-4.5-1.2-.4-1.8-.8-2.1-.9-2.1-1-1.8-.8-1.1-.6a18.2 18.2 0 0 1-2.7-1.5 13.8 13.8 0 0 1-2.6-2.2 10 10 0 0 1-2-2.6 8.9 8.9 0 0 1-1.1-3.1l-.5.2-.6.3-.9.7-1.7 1.1a11 11 0 0 1-2.1 1.4l-2.1 1.4-1.7 1.1-.9.5-6 3.5a22.2 22.2 0 0 0-4.5 3.4 17.3 17.3 0 0 0-3.6 4.4c-.8 1.7-.7 3.9-2.3 6.5v1.6a10.5 10.5 0 0 0 1.1 4.4 7.5 7.5 0 0 0 2.1 2.5 7.3 7.3 0 0 0 2.6 1.4l2.6 1a4.4 4.4 0 0 1 1.9 1 5.3 5.3 0 0 1 .8 2h-13.3l-.2-.4c-.1-.2-.2-.1-.3-.2l-.5-.2c-.2-.1-.4-.1-.6-.3a3.7 3.7 0 0 1-1.3-1.5 7.8 7.8 0 0 1-.4-2.2 9.3 9.3 0 0 1 .2-2.3c0-.7.2-1.4.2-2v-1.4a8.2 8.2 0 0 1 .3-1.8c.2-.8.3-1.7.6-2.7s.5-2 .7-3.1.6-2.1.8-3.1.5-1.9.7-2.7l.4-1.7a9.3 9.3 0 0 1 .7-2 7 7 0 0 1 1-1.9 15.4 15.4 0 0 0 4.4-2.5 19.9 19.9 0 0 0 3.2-3.3l2.9-3.4a16.3 16.3 0 0 1 3.4-3 4.2 4.2 0 0 1 1.5-.7l2-.8 2.3-1a10.3 10.3 0 0 0 2.1-1.1 7.5 7.5 0 0 0 1.6-1.3 2.5 2.5 0 0 0 .6-1.6v-1.3a1.7 1.7 0 0 0-.6-1.2l-.8-.3-1.2-.5-1.1-.5-.8-.4a9.4 9.4 0 0 1-2-1.2l-2.7-1.9-2.5-1.5a3.1 3.1 0 0 0-1.7-.6h-7.8c-6 0-11.8-.1-17.5.1s-11.6.2-17.6.2c-4.3 0-8.6-.1-12.7-.3a98.4 98.4 0 0 1-12.3-1.4 71.2 71.2 0 0 1-11.9-2.9 65.3 65.3 0 0 1-11.7-5l-1.4-.7-1.6-1a8 8 0 0 1-1.3-1.3 3 3 0 0 1-.5-1.5 5.9 5.9 0 0 1 2.1.4l2.4.9 2.2.9 1.4.7 4.7 1.6a41 41 0 0 0 5 1.4 30.6 30.6 0 0 0 5.1 1 27.4 27.4 0 0 0 4.8.4h26.3l2.5-.4 3.4-.5 3.6-.6 3.4-.6 2.6-.6 6.8-1.3 7.3-1.6q3.8-.9 7.2-2.1a39.7 39.7 0 0 0 6.6-2.8l3.8-1.7a25.4 25.4 0 0 1 3.8-1.6 22.3 22.3 0 0 1 3.9-1.3l4.1-1h4.6l1-.2 1.9-.3 3.3-.8 4-.9 4-.9a31.7 31.7 0 0 0 3.3-1.1c.9-.2 1.6-.7 1.9-.7h6.5c2.7 0 5.3.5 7.8.7s5.2.5 7.8.5a9.7 9.7 0 0 0 5-1.2 18.3 18.3 0 0 0 4.5-3.5 30.5 30.5 0 0 0 3.8-4.9c1.2-1.9 2.3-3.7 3.3-5.6s1.8-3.8 2.5-5.6l1.8-4.7c.4-1.2.7-2.4 1.1-3.5a28.1 28.1 0 0 1 1-3.1 12.3 12.3 0 0 1 1.2-2.6 6.1 6.1 0 0 1 1.7-1.9 7.6 7.6 0 0 1 2.6-1.6 12.7 12.7 0 0 1 3.8-.8h3c.8 1.6 1.8.9 3 1.3a36.8 36.8 0 0 1 3.5 1.5 21.6 21.6 0 0 1 3 1.8 2.9 2.9 0 0 1 1.2 2.2 2 2 0 0 1-.5 1.4 2.4 2.4 0 0 1-1.1.2z"/></symbol><symbol id="velociraptor" viewBox="0 0 256 256"><path d="M127.7.8A127.4 127.4 0 1 0 255 128.2 127.4 127.4 0 0 0 127.7.8zM237.8 117h-7.4c-3.1 0-6.1-.2-9.2-.5l-9.1-.9-9.1-1c-3-.3-6.1-.4-9.2-.4a149.8 149.8 0 0 0-16.3.9 77.2 77.2 0 0 0-15.8 3.7l-30.6 11.1a2.4 2.4 0 0 0-1.2 1.5 22.9 22.9 0 0 0-.8 2.8c-.3 1-.5 1.9-.7 2.8a5.3 5.3 0 0 1-.6 2 3 3 0 0 0 1.4 1.3l2.4 1.2 2.9 1.2 2.8 1.4a7.8 7.8 0 0 1 2.1 1.9 4.1 4.1 0 0 1 .8 2.5 1.7 1.7 0 0 1-.5 1.2 3.6 3.6 0 0 1-1.2.8l-1.6.8-1.6.8a4 4 0 0 0-1.2 1 2.5 2.5 0 0 0-.5 1.5 4 4 0 0 0 .8 2.6 7.7 7.7 0 0 0 1.9 1.6l2.4 1.3a6.8 6.8 0 0 1 2.1 1.7 18 18 0 0 1 2.1 3.5 25.3 25.3 0 0 1 1.2 3.6 27 27 0 0 1 .8 3.9c.2 1.3.1 2.6.3 4l1.3 1.3v7.1h.8l1.1.2 1 .2.5.3a3.2 3.2 0 0 1 .1.8 3.8 3.8 0 0 1-.1 1 5.6 5.6 0 0 1-.4 1.2 3.3 3.3 0 0 1-.6 1 1 1 0 0 1-.9.3h-5.2c-.2 0-.5-.5-1-.8l-1.5-.9-1.5-.8c-.5-.3-.9-.8-1.2-.8h-6.2a5 5 0 0 1 .7-3 4.9 4.9 0 0 1 1.6-1.6 7.9 7.9 0 0 1 2.2-.6l2.1-.4a3.8 3.8 0 0 0 1.6-.6 1.4 1.4 0 0 0 .7-1.3.8.8 0 0 0-.1-.4v-.3l-.8-1.7-1.3-2.5-1.5-2.4-1.6-1.9-1.3-.8-1.9-.9-1.7-1.1a2.1 2.1 0 0 1-1-1.1c-.3-.8-.6-1.8-.9-2.9a30.1 30.1 0 0 0-1.1-3.2 6.9 6.9 0 0 0-1.7-2.6 4 4 0 0 0-2.9-1.1 25.5 25.5 0 0 0-6.1.8 28.3 28.3 0 0 0-5.7 2.3 21.5 21.5 0 0 0-5 3.5 21.1 21.1 0 0 0-3.9 4.5c-.1.2-.2.2-.4.2h-.1l-.2-.2-.2-.3c0-.2-.1-.4-.1-.6s-.1-.5-.2-.6-.1-.3-.1-.4h-.3a1.5 1.5 0 0 0-1.1.4l-.9 1.2a5.7 5.7 0 0 1-.8 1.3 2.9 2.9 0 0 1-.8 1 5.2 5.2 0 0 1-.7-1.6c0-.5-.1-1-.1-1.7a13.5 13.5 0 0 1 .4-2.9l.9-2.8a12.5 12.5 0 0 0 .9-2.5 15.9 15.9 0 0 0 .4-2.8h-4.8c0-1.7.2-1.8.6-2.4a12.1 12.1 0 0 1 1.6-1.6 14.5 14.5 0 0 1 2.2-.9l2.1-.3 3 .2 2.9.5 2.9.5 3 .2h2.3a3 3 0 0 0-1.7-1.4l-2.6-.4-2.7-.2c-.9-.1-1.6.1-2.1-.2l-4-2.2h-.2a11.4 11.4 0 0 0-3.2 0 16.9 16.9 0 0 1-3.2.1 7.3 7.3 0 0 1-3-.7l-2.6-1.5-2.6-1.3a5.5 5.5 0 0 0-2.9-.6v6H85l1-.3.9-.6c.3-.2.3-.4.9-.6l.6-.2v2.8l2-.7c0 .1.2.3.2.5a4.3 4.3 0 0 0 .1.5 5.6 5.6 0 0 1-1.3 3.9 19 19 0 0 1-3.3 2.9 20.9 20.9 0 0 0-4.6-1.2l-4.8-.7v-7.8l-1.7.4-2.1 1-1.9 1.2c-.4.4-.9.8-.9 1.2v6.9a10.1 10.1 0 0 0 3-.3l1.8-.6 1.2-.6a2.8 2.8 0 0 1 1.3-.3h.3c.1.1.1.4.3.7a11.2 11.2 0 0 0 .5 1.3l.3 1.3a1.8 1.8 0 0 1 .2.9 4.8 4.8 0 0 1-.4 2 5.8 5.8 0 0 1-1.1 1.8 4.7 4.7 0 0 1-1.5 1.3 3.2 3.2 0 0 1-1.8.6h-1.1l-3-.4a23.3 23.3 0 0 1-3.6-.8 14.2 14.2 0 0 1-3.3-1.2 2.6 2.6 0 0 1-1.4-2.1v-11.8l.9-.8 1.9-1.6 2.3-2.2a19.5 19.5 0 0 0 2.4-2.6 20.3 20.3 0 0 0 1.8-2.6 5.6 5.6 0 0 0 .8-2.6 3.8 3.8 0 0 0-1.2-2.8 11.8 11.8 0 0 0-2.8-2 15.6 15.6 0 0 0-3.3-1.4l-2.5-.9-1.3-9.2q-.3-1.2-.6-2.7a21.8 21.8 0 0 0-1.1-2.7 7.9 7.9 0 0 0-1.8-2.2 4.6 4.6 0 0 0-2.7-.8 12.8 12.8 0 0 0-3.6.4l-3.2 1.5-1.7 1.1-2.5 1.5-3 1.7-3 1.8-2.5 1.6c-.8.5-1.3 1.1-1.7 1.1h-1l-1.7-.2a7.8 7.8 0 0 1-2.1-.4 2.7 2.7 0 0 1-1.3-.7c-.5-.3-.4-.8-.4-1.4v-1.9c0-.6-.2-.9.1-.9h1.5v-.5c.1-.2.1-.5.2-.8s.1-.6.2-.8v-.5a3.6 3.6 0 0 0-.8-.9l-.9-.5c-.3-.1-.5-.4-.7-.6a2.3 2.3 0 0 1-.3-1.3 3.5 3.5 0 0 1 .3-1.2 6 6 0 0 1 .6-1.1c.3-.4.3-.7.7-.9l.8-.3v.8c0 .5.4 1 .5 1.4a1.3 1.3 0 0 0 1.2.8 1.6 1.6 0 0 0 1.1-.5 5.2 5.2 0 0 0 1-1.1 11.5 11.5 0 0 0 .6-1.7c.2-.4.3.3.3-1.4H21l-.8-.4-1.1-.7-.9-.8a1.8 1.8 0 0 1-.4-1 4.4 4.4 0 0 1 1.1-3.2 6.8 6.8 0 0 1 2.6-1.8 11.9 11.9 0 0 1 3.2-1l2.9-.9 2.2-.9 3.3-1.6 3.4-1.5a6.2 6.2 0 0 1 2.2-1.1h13.6a7.6 7.6 0 0 1 3.9 1 14.8 14.8 0 0 1 3.1 2.5 20.4 20.4 0 0 1 2.5 3.3l2.3 3.3a20.2 20.2 0 0 0 2.3 2.6 3.9 3.9 0 0 0 2.5 1 .8.8 0 0 0 .8-.4c.1-.3.4-.4.8-.4a4 4 0 0 1 1.5.3l1.6.7 1.5.7a4 4 0 0 0 1.5.3 29.5 29.5 0 0 0 4.2-.2l4.1-.4 4.1-.5 4.1-.2a56.4 56.4 0 0 1 7.3.4 39.5 39.5 0 0 1 7.3 1.5l5 2 5.1 2.2a47.2 47.2 0 0 0 5.3 1.8 23.5 23.5 0 0 0 5.4.7h2.6l12.9-2.8c4.3-.8 8.6-1.6 12.8-2.2s8.6-1.2 13-1.6 8.7-.6 13.1-.6h8.9a34 34 0 0 1 5 1l36.5 7.2H245c-.8 0-1.8 1-3.1 1.4a14.1 14.1 0 0 1-4.1.2z"/></symbol></svg>